<?xml version="1.0" encoding="utf-8"?>
<!-- Svg Vector Icons : http://www.onlinewebfonts.com/icon -->
<!DOCTYPE svg PUBLIC "-//W3C//DTD SVG 1.1//EN" "http://www.w3.org/Graphics/SVG/1.1/DTD/svg11.dtd">
<svg version="1.1" xmlns="http://www.w3.org/2000/svg" xmlns:xlink="http://www.w3.org/1999/xlink" x="0px" y="0px" viewBox="0 0 1000 1000" enable-background="new 0 0 1000 1000" xml:space="preserve">
<metadata> Svg Vector Icons : http://www.onlinewebfonts.com/icon </metadata>
<g><path d="M894.8,209.8c8-12,12.7-26.4,12.7-41.9c0-41.6-33.8-75.4-75.4-75.4c-15.5,0-30,4.7-41.9,12.7C709,45.4,608.6,10,500,10C229.4,10,10,229.4,10,500c0,270.6,219.4,490,490,490c270.6,0,490-219.4,490-490C990,391.4,954.6,291,894.8,209.8z M820,820c-41.6,41.6-90,74.2-143.9,97c-55.8,23.6-115,35.5-176.1,35.5s-120.4-12-176.1-35.5C270,894.2,221.6,861.6,180,820c-41.6-41.6-74.2-90-97-143.9c-23.6-55.8-35.5-115-35.5-176.1s12-120.4,35.5-176.1c22.8-53.9,55.4-102.3,97-143.9c41.6-41.6,90-74.2,143.9-97c55.8-23.6,115-35.5,176.1-35.5c61.1,0,120.4,12,176.1,35.5c31.7,13.4,61.4,30.2,89.1,50.2c-5.4,10.4-8.4,22.1-8.4,34.6c0,41.6,33.8,75.4,75.4,75.4c12.5,0,24.2-3,34.6-8.4c20,27.6,36.8,57.4,50.2,89.1c23.6,55.8,35.5,115,35.5,176.1c0,61.1-12,120.4-35.5,176.1C894.2,730,861.6,778.4,820,820z"/><path d="M273.9,500c0,124.9,101.3,226.2,226.2,226.2c124.9,0,226.2-101.3,226.2-226.2c0-124.9-101.3-226.2-226.2-226.2C375.1,273.8,273.9,375.1,273.9,500z"/></g>
</svg>