<?xml version="1.0" encoding="UTF-8"?>
<!DOCTYPE svg PUBLIC "-//W3C//DTD SVG 1.1//EN" "http://www.w3.org/Graphics/SVG/1.1/DTD/svg11.dtd">
<!-- Creator: CorelDRAW 2019 (64-Bit) -->
<svg xmlns="http://www.w3.org/2000/svg" xml:space="preserve" width="22mm" height="22mm" version="1.1" style="shape-rendering:geometricPrecision; text-rendering:geometricPrecision; image-rendering:optimizeQuality; fill-rule:evenodd; clip-rule:evenodd"
viewBox="0 0 212.45 212.45"
 xmlns:xlink="http://www.w3.org/1999/xlink"
 xmlns:xodm="http://www.corel.com/coreldraw/odm/2003">
 <defs>
  <style type="text/css">
   <![CDATA[
    .fil1 {fill:none}
    .fil0 {fill:white}
   ]]>
  </style>
   <clipPath id="id0">
    <path d="M-0 0l212.45 0 0 212.45 -212.45 0 0 -212.45z"/>
   </clipPath>
 </defs>
 <g id="Capa_x0020_1">
  <metadata id="CorelCorpID_0Corel-Layer"/>
  <g>
  </g>
  <g style="clip-path:url(#id0)">
   <g>
    <g id="_2259632886224">
     <path class="fil0" d="M86.12 185.65l0.53 -47.16 39.16 0.13 0.17 47.04c2.28,6.82 8.08,5.04 15.64,5.03 14.76,-0.03 38.83,4.13 42.02,-16.07 1.21,-7.64 0.32,-45.76 0.35,-58.7 0.02,-9.88 1.25,-8.53 -3.15,-15.76 -13.28,-1.55 -9.84,10.15 -9.84,21.31 0,68.06 5.64,56.04 -32.49,56.21 -0.4,-11.72 2.09,-43.59 -2.04,-50.91 -7.03,-1.91 -53.79,-1.89 -60.87,0 -4.11,7.3 -1.62,39.22 -2.02,50.91 -38.44,-0.17 -32.49,11.76 -32.49,-57.13 0,-10.9 3.24,-21.9 -9.84,-20.38 -4.53,7.22 -3.16,6.86 -3.15,16.69 0.01,12.26 -0.82,50.87 0.27,57.69 3.28,20.55 28.02,16.1 43.02,16.15 7.37,0.02 12.48,1.62 14.71,-5.03z"/>
     <path class="fil0" d="M9.37 96.1c8.77,5.75 5.9,4.76 24.62,-8.34l46.34 -33.11c3.86,-2.82 8.18,-5.84 11.89,-8.45 2.3,-1.61 3.74,-2.73 5.91,-4.25 11.39,-7.91 5.1,-6.9 29.33,9.6l23.19 16.53c7.87,5.87 15.33,11.02 23.21,16.52 10.55,7.36 17.82,15.5 26.35,14.74 6.68,-11.08 1.86,-9.84 -14.42,-22.11 -8.43,-6.35 -16.8,-11.8 -25.33,-18.09l-51.39 -36.5c-6.12,-2.76 -17.76,8.35 -26.71,14.58l-50.65 36.19c-4.23,3.08 -8.58,6.11 -12.93,9.24 -5.15,3.71 -10.08,4.43 -9.43,13.43z"/>
     <path class="fil0" d="M41.17 34.86c11.34,-0.43 30.76,4.11 24.31,-11.79 -7.16,-2.61 -18.68,-1.38 -27.38,-1.36 -13.03,0.03 -9.98,7.46 -9.98,19.37 0,7.71 -2.41,22.93 8.73,19.19 6.63,-2.23 4.13,-18.62 4.31,-25.41z"/>
     <path class="fil0" d="M86.12 185.65c1.75,-2.01 1,-40.31 0.76,-46.13l38.38 0c-0.25,5.1 -0.95,45.16 0.72,46.13l-0.17 -47.04 -39.16 -0.13 -0.53 47.16z"/>
    </g>
   </g>
  </g>
  <polygon class="fil1" points="-0,0 212.45,0 212.45,212.45 -0,212.45 "/>
 </g>
</svg>
