<?xml version="1.0" encoding="UTF-8"?>
<!DOCTYPE svg PUBLIC "-//W3C//DTD SVG 1.1//EN" "http://www.w3.org/Graphics/SVG/1.1/DTD/svg11.dtd">
<!-- Creator: CorelDRAW 2019 (64-Bit) -->
<svg xmlns="http://www.w3.org/2000/svg" xml:space="preserve" width="22mm" height="22mm" version="1.1" style="shape-rendering:geometricPrecision; text-rendering:geometricPrecision; image-rendering:optimizeQuality; fill-rule:evenodd; clip-rule:evenodd"
viewBox="0 0 5406.01 5406.01"
 xmlns:xlink="http://www.w3.org/1999/xlink"
 xmlns:xodm="http://www.corel.com/coreldraw/odm/2003">
 <defs>
  <style type="text/css">
   <![CDATA[
    .fil2 {fill:none}
    .fil0 {fill:white}
    .fil1 {fill:white}
   ]]>
  </style>
   <clipPath id="id0">
    <path d="M-0 0l5406.01 0 0 5406.01 -5406.01 0 0 -5406.01z"/>
   </clipPath>
 </defs>
 <g id="Capa_x0020_1">
  <metadata id="CorelCorpID_0Corel-Layer"/>
  <g>
  </g>
  <g style="clip-path:url(#id0)">
   <g>
    <g id="_2259638217360">
     <path class="fil0" d="M2191.45 12785.92l13.49 -1200.13 996.4 3.19 4.45 1196.94c58.11,173.48 205.6,128.29 397.91,127.9 375.57,-0.74 987.95,105.15 1069.26,-408.84 30.74,-194.4 8.23,-1164.31 8.85,-1493.63 0.47,-251.43 31.9,-216.98 -80.08,-401.05 -338,-39.32 -250.4,258.33 -250.4,542.12 0.02,1731.77 143.46,1425.93 -826.65,1430.28 -10.25,-298.14 53.27,-1109.24 -51.92,-1295.57 -178.99,-48.53 -1368.68,-48.06 -1548.77,0 -104.53,185.77 -41.18,997.97 -51.41,1295.57 -978.24,-4.37 -826.7,299.35 -826.65,-1453.8 0,-277.43 82.44,-557.31 -250.4,-518.61 -115.37,183.8 -80.33,174.54 -80.06,424.57 0.29,311.98 -20.79,1294.44 6.9,1468.08 83.42,522.91 713.03,409.7 1094.72,410.93 187.42,0.61 317.68,41.26 374.37,-127.95z"/>
     <path class="fil0" d="M238.53 10507.32c223.05,146.23 150.12,121 626.56,-212.24l1179.27 -842.53c98.27,-71.68 208.08,-148.62 302.49,-214.94 58.43,-41.04 95.07,-69.54 150.46,-108.02 289.76,-201.32 129.74,-175.6 746.27,244.35l590.19 420.69c200.22,149.45 390.09,280.4 590.61,420.42 268.36,187.39 453.32,394.44 670.52,375.08 169.95,-282.02 47.4,-250.45 -366.85,-562.67 -214.54,-161.69 -427.42,-300.28 -644.62,-460.3l-1307.54 -928.68c-155.64,-70.11 -451.92,212.51 -679.61,371.07l-1288.84 920.89c-107.58,78.46 -218.21,155.35 -328.98,235.19 -131.02,94.43 -256.47,112.62 -239.93,341.68z"/>
     <path class="fil0" d="M1047.49 8948.84c288.61,-10.98 782.69,104.61 618.5,-299.98 -182.31,-66.37 -475.24,-35.16 -696.59,-34.62 -331.56,0.79 -253.96,189.78 -253.93,492.93 0,196.14 -61.21,583.53 222.24,488.24 168.79,-56.76 105.17,-473.86 109.79,-646.56z"/>
     <path class="fil0" d="M2191.45 12785.92c44.5,-51.06 25.53,-1025.79 19.36,-1173.84l976.57 0c-6.27,129.89 -24.16,1149.12 18.41,1173.84l-4.45 -1196.94 -996.4 -3.19 -13.49 1200.13z"/>
    </g>
    <g id="_2259638216368">
     <path class="fil1" d="M2520.72 955.68c1018.91,-129.18 1825.86,666.44 1929.55,1550.15 121.76,1037.46 -655.26,1838.51 -1550.22,1944.17 -1035.69,122.3 -1837.23,-652.82 -1943.85,-1548.55 -74.28,-624 233.74,-1263.56 629.95,-1559.09 291.24,-217.22 535.51,-336.08 934.58,-386.68zm-2312.37 1683.53l0 137.9c38.41,63.27 48.09,123.18 94.65,197.98 125.71,201.94 285.54,320.43 298.19,627.98 21.75,528.56 -11.84,615.97 467.05,778.86 482.93,164.22 397.64,258.38 681.13,560.48 313.7,334.31 572.2,0.59 964.9,6.81 383.63,6.07 634.98,321.63 942.71,-6.44 289.93,-309.13 189.23,-392.5 680.99,-560.82 806.16,-275.95 198.15,-609.45 636.34,-1226.53 242.46,-341.41 115.81,-198.77 223.34,-390.51l0 -125.47c-104.56,-184.71 14.84,-55.95 -223.1,-389.58 -86.89,-121.83 -160.8,-243.22 -169.55,-447.45 -22.43,-524.75 4.99,-618.94 -466.91,-778.83 -480.89,-162.94 -400.17,-259.71 -681.16,-560.73 -311.34,-333.53 -577.68,-0.29 -965.24,-6.41 -176.19,-2.78 -339.77,-84.46 -502.93,-120.95 -254.75,-56.96 -327.33,8.11 -450.37,138.91 -295.51,314.14 -182.13,380.83 -686.64,555.1 -797.41,275.44 -168.74,605.65 -629.43,1233.5 -228.8,311.83 -121.07,213 -213.98,376.18z"/>
     <path class="fil1" d="M1433.21 2891.28c-92.93,-770.85 441.7,-1377.01 1085.23,-1458.64 764.09,-96.92 1372.61,445.97 1454.76,1085.5 98.12,764.07 -444.57,1372.07 -1085.4,1455.22 -758.34,98.41 -1378.29,-449.19 -1454.59,-1082.09zm1027.76 -1698.32c-760.06,131.83 -1418.59,825.1 -1269.53,1756.24 120.55,753.18 845.79,1409.86 1757.74,1265.06 752.05,-119.42 1411.8,-845.35 1265.33,-1757.74 -119.89,-746.72 -849.31,-1420.38 -1753.54,-1263.56z"/>
     <path class="fil1" d="M2054.63 2492.15c-69.91,-394.32 231.84,-483.05 273.86,-193.54 58.78,405.18 -230.15,440.12 -273.86,193.54zm31.18 -520.35c-466.42,130.48 -342.15,990.92 214.23,837.93 434.91,-119.57 359.13,-998.34 -214.23,-837.93z"/>
     <path class="fil1" d="M3149.79 2749.3c227.74,-152.3 277.57,394.02 117.65,474.75 -222.83,112.47 -242.51,-391.22 -117.65,-474.75zm-60.99 -176.19c-451.3,151.47 -283.79,994.31 241.87,824.17 447.86,-144.95 337.78,-1018.74 -241.87,-824.17z"/>
     <path class="fil1" d="M3033.73 1986.07c-98,67.7 -542.79,941.48 -640.88,1115.43 -26.07,46.27 -83.01,141.24 -104.53,187.91 -32.09,69.49 -18.18,202.5 89.79,134.61l739.32 -1308.18c35.7,-78.73 7.64,-192.9 -83.69,-129.77z"/>
    </g>
   </g>
  </g>
  <polygon class="fil2" points="-0,0 5406.01,0 5406.01,5406.01 -0,5406.01 "/>
 </g>
</svg>
